<svg width="5437" height="450" viewBox="0 0 5437 450" fill="none" xmlns="http://www.w3.org/2000/svg">
<path d="M158.08 277.3C164.92 277.3 170.367 279.453 174.42 283.76C178.727 287.813 180.88 293.26 180.88 300.1V326.7C180.88 333.54 178.727 339.113 174.42 343.42C170.367 347.473 164.92 349.5 158.08 349.5H32.68C25.84 349.5 20.2667 347.473 15.96 343.42C11.9067 339.113 9.88 333.54 9.88 326.7V106.3C9.88 99.46 11.9067 94.0133 15.96 89.96C20.2667 85.6533 25.84 83.5 32.68 83.5H75.62C82.46 83.5 87.9067 85.6533 91.96 89.96C96.2667 94.0133 98.42 99.46 98.42 106.3V254.5C98.42 263.62 99.94 269.7 102.98 272.74C106.02 275.78 112.1 277.3 121.22 277.3H158.08ZM311.098 353.3C269.552 353.3 238.645 342.153 218.378 319.86C198.365 297.567 188.358 263.113 188.358 216.5C188.358 169.887 198.365 135.433 218.378 113.14C238.645 90.8467 269.552 79.7 311.098 79.7C352.898 79.7 383.805 90.8467 403.818 113.14C424.085 135.18 434.218 169.633 434.218 216.5C434.218 263.367 424.085 297.947 403.818 320.24C383.805 342.28 352.898 353.3 311.098 353.3ZM311.478 281.1C317.305 281.1 322.118 280.213 325.918 278.44C329.718 276.667 332.758 273.373 335.038 268.56C337.318 263.747 338.838 257.16 339.598 248.8C340.612 240.187 341.118 229.167 341.118 215.74C341.118 203.073 340.612 192.687 339.598 184.58C338.838 176.22 337.318 169.633 335.038 164.82C332.758 160.007 329.718 156.713 325.918 154.94C322.118 152.913 317.178 151.9 311.098 151.9C305.272 151.9 300.458 152.787 296.658 154.56C292.858 156.333 289.818 159.627 287.538 164.44C285.258 169.253 283.612 175.84 282.598 184.2C281.838 192.56 281.458 203.327 281.458 216.5C281.458 229.673 281.838 240.44 282.598 248.8C283.612 257.16 285.258 263.747 287.538 268.56C289.818 273.373 292.858 276.667 296.658 278.44C300.712 280.213 305.652 281.1 311.478 281.1ZM456.84 349.5C447.72 349.5 441.893 347.98 439.36 344.94C437.08 341.9 436.953 335.947 438.98 327.08L486.86 105.92C488.38 99.08 491.673 93.6333 496.74 89.58C501.807 85.5267 507.76 83.5 514.6 83.5H615.68C622.52 83.5 628.474 85.5267 633.54 89.58C638.607 93.6333 641.9 99.08 643.42 105.92L691.3 327.08C693.327 335.947 693.074 341.9 690.54 344.94C688.26 347.98 682.56 349.5 673.44 349.5H625.94C618.847 349.5 613.654 348.233 610.36 345.7C607.067 343.167 604.914 338.48 603.9 331.64C602.38 324.293 600.1 319.48 597.06 317.2C594.02 314.92 588.827 313.78 581.48 313.78H548.8C541.454 313.78 536.26 314.92 533.22 317.2C530.434 319.48 528.28 324.293 526.76 331.64C524.987 338.48 522.834 343.167 520.3 345.7C517.767 348.233 512.447 349.5 504.34 349.5H456.84ZM566.66 241.58C578.567 241.58 583.127 235.373 580.34 222.96L570.08 175.84C569.32 172.293 567.674 170.52 565.14 170.52C562.607 170.52 560.96 172.293 560.2 175.84L550.32 222.96C547.534 235.373 551.967 241.58 563.62 241.58H566.66ZM711.877 106.3C711.877 99.46 713.903 94.0133 717.957 89.96C722.263 85.6533 727.837 83.5 734.677 83.5H836.517C876.543 83.5 906.437 94.0133 926.197 115.04C945.957 136.067 955.837 169.887 955.837 216.5C955.837 263.113 945.83 296.933 925.817 317.96C905.803 338.987 875.023 349.5 833.477 349.5H734.677C727.837 349.5 722.263 347.473 717.957 343.42C713.903 339.113 711.877 333.54 711.877 326.7V106.3ZM800.417 174.7V258.3C800.417 265.647 802.57 271.347 806.877 275.4C811.437 279.2 817.263 281.1 824.357 281.1C832.717 281.1 839.43 278.947 844.497 274.64C849.563 270.333 853.49 264.887 856.277 258.3C859.317 251.713 861.217 244.62 861.977 237.02C862.99 229.42 863.497 222.453 863.497 216.12C863.497 209.787 862.99 202.947 861.977 195.6C860.963 188 859.063 181.033 856.277 174.7C853.49 168.113 849.563 162.667 844.497 158.36C839.43 154.053 832.717 151.9 824.357 151.9C817.263 151.9 811.437 153.927 806.877 157.98C802.57 161.78 800.417 167.353 800.417 174.7ZM997.129 349.5C990.289 349.5 984.716 347.473 980.409 343.42C976.356 339.113 974.329 333.54 974.329 326.7V106.3C974.329 99.46 976.356 94.0133 980.409 89.96C984.716 85.6533 990.289 83.5 997.129 83.5H1040.07C1046.91 83.5 1052.36 85.6533 1056.41 89.96C1060.72 94.0133 1062.87 99.46 1062.87 106.3V326.7C1062.87 333.54 1060.72 339.113 1056.41 343.42C1052.36 347.473 1046.91 349.5 1040.07 349.5H997.129ZM1309.94 83.12C1316.78 83.12 1322.35 85.2733 1326.66 89.58C1330.96 93.8867 1333.12 99.46 1333.12 106.3V326.7C1333.12 333.54 1330.96 339.113 1326.66 343.42C1322.35 347.727 1316.78 349.88 1309.94 349.88H1267C1262.44 349.88 1258.51 349.627 1255.22 349.12C1251.92 348.36 1249.01 347.22 1246.48 345.7C1243.94 344.18 1241.54 342.153 1239.26 339.62C1236.98 337.087 1234.7 333.92 1232.42 330.12L1192.52 262.86C1190.24 259.567 1187.45 257.92 1184.16 257.92C1181.88 257.92 1179.85 258.807 1178.08 260.58C1176.3 262.1 1175.42 264.38 1175.42 267.42V326.7C1175.42 333.54 1173.26 339.113 1168.96 343.42C1164.65 347.727 1159.08 349.88 1152.24 349.88H1109.3C1102.46 349.88 1096.88 347.727 1092.58 343.42C1088.27 339.113 1086.12 333.54 1086.12 326.7V106.3C1086.12 99.46 1088.27 93.8867 1092.58 89.58C1096.88 85.2733 1102.46 83.12 1109.3 83.12H1160.22C1166.3 83.12 1170.73 84.0067 1173.52 85.78C1176.56 87.5533 1179.72 91.1 1183.02 96.42L1226.72 170.14C1229 173.433 1231.78 175.08 1235.08 175.08C1237.36 175.08 1239.38 174.32 1241.16 172.8C1242.93 171.027 1243.82 168.62 1243.82 165.58V106.3C1243.82 99.46 1245.97 93.8867 1250.28 89.58C1254.58 85.2733 1260.16 83.12 1267 83.12H1309.94ZM1589.31 219.54C1593.87 266.66 1586.52 300.733 1567.27 321.76C1548.02 342.787 1517.62 353.3 1476.07 353.3C1433.76 353.3 1402.48 342.153 1382.21 319.86C1361.94 297.567 1351.81 263.113 1351.81 216.5C1351.81 191.673 1354.09 170.647 1358.65 153.42C1363.21 135.94 1370.81 121.753 1381.45 110.86C1392.34 99.9667 1406.66 92.1133 1424.39 87.3C1442.38 82.2333 1464.8 79.7 1491.65 79.7C1492.41 79.7 1495.45 79.7 1500.77 79.7C1506.09 79.7 1512.17 79.8267 1519.01 80.08C1526.1 80.08 1533.32 80.2067 1540.67 80.46C1548.02 80.46 1554.1 80.7133 1558.91 81.22C1567.02 81.7266 1572.84 84.0066 1576.39 88.06C1579.94 92.1133 1581.71 98.4467 1581.71 107.06V133.66C1581.71 141.767 1579.94 147.087 1576.39 149.62C1573.1 151.9 1567.27 153.04 1558.91 153.04H1493.17C1484.3 153.04 1476.83 153.8 1470.75 155.32C1464.67 156.587 1459.73 159.5 1455.93 164.06C1452.13 168.62 1449.34 175.08 1447.57 183.44C1445.8 191.8 1444.91 202.82 1444.91 216.5C1444.91 229.673 1445.29 240.44 1446.05 248.8C1447.06 257.16 1448.84 263.747 1451.37 268.56C1453.9 273.373 1457.2 276.667 1461.25 278.44C1465.56 280.213 1470.88 281.1 1477.21 281.1C1483.04 281.1 1487.72 280.213 1491.27 278.44C1495.07 276.667 1497.98 272.867 1500.01 267.04C1501.28 262.987 1500.77 259.693 1498.49 257.16C1496.46 254.373 1493.17 252.98 1488.61 252.98C1484.3 252.98 1480.76 251.713 1477.97 249.18C1475.44 246.393 1474.3 242.847 1474.55 238.54V203.58C1474.3 196.74 1476.32 191.293 1480.63 187.24C1484.94 182.933 1490.51 180.78 1497.35 180.78H1562.71C1569.55 180.78 1575.25 182.807 1579.81 186.86C1584.37 190.913 1587.03 196.36 1587.79 203.2L1589.31 219.54Z" fill="white"/>
<path d="M1658.51 212.985C1663.2 208.299 1670.8 208.299 1675.49 212.985L1708.51 246.015C1713.2 250.701 1713.2 258.299 1708.51 262.985L1675.49 296.015C1670.8 300.701 1663.2 300.701 1658.51 296.015L1625.49 262.985C1620.8 258.299 1620.8 250.701 1625.49 246.015L1658.51 212.985Z" fill="white"/>
<path d="M1895.08 277.3C1901.92 277.3 1907.37 279.453 1911.42 283.76C1915.73 287.813 1917.88 293.26 1917.88 300.1V326.7C1917.88 333.54 1915.73 339.113 1911.42 343.42C1907.37 347.473 1901.92 349.5 1895.08 349.5H1769.68C1762.84 349.5 1757.27 347.473 1752.96 343.42C1748.91 339.113 1746.88 333.54 1746.88 326.7V106.3C1746.88 99.46 1748.91 94.0133 1752.96 89.96C1757.27 85.6533 1762.84 83.5 1769.68 83.5H1812.62C1819.46 83.5 1824.91 85.6533 1828.96 89.96C1833.27 94.0133 1835.42 99.46 1835.42 106.3V254.5C1835.42 263.62 1836.94 269.7 1839.98 272.74C1843.02 275.78 1849.1 277.3 1858.22 277.3H1895.08ZM2048.1 353.3C2006.55 353.3 1975.64 342.153 1955.38 319.86C1935.36 297.567 1925.36 263.113 1925.36 216.5C1925.36 169.887 1935.36 135.433 1955.38 113.14C1975.64 90.8467 2006.55 79.7 2048.1 79.7C2089.9 79.7 2120.8 90.8467 2140.82 113.14C2161.08 135.18 2171.22 169.633 2171.22 216.5C2171.22 263.367 2161.08 297.947 2140.82 320.24C2120.8 342.28 2089.9 353.3 2048.1 353.3ZM2048.48 281.1C2054.3 281.1 2059.12 280.213 2062.92 278.44C2066.72 276.667 2069.76 273.373 2072.04 268.56C2074.32 263.747 2075.84 257.16 2076.6 248.8C2077.61 240.187 2078.12 229.167 2078.12 215.74C2078.12 203.073 2077.61 192.687 2076.6 184.58C2075.84 176.22 2074.32 169.633 2072.04 164.82C2069.76 160.007 2066.72 156.713 2062.92 154.94C2059.12 152.913 2054.18 151.9 2048.1 151.9C2042.27 151.9 2037.46 152.787 2033.66 154.56C2029.86 156.333 2026.82 159.627 2024.54 164.44C2022.26 169.253 2020.61 175.84 2019.6 184.2C2018.84 192.56 2018.46 203.327 2018.46 216.5C2018.46 229.673 2018.84 240.44 2019.6 248.8C2020.61 257.16 2022.26 263.747 2024.54 268.56C2026.82 273.373 2029.86 276.667 2033.66 278.44C2037.71 280.213 2042.65 281.1 2048.48 281.1ZM2193.84 349.5C2184.72 349.5 2178.89 347.98 2176.36 344.94C2174.08 341.9 2173.95 335.947 2175.98 327.08L2223.86 105.92C2225.38 99.08 2228.67 93.6333 2233.74 89.58C2238.81 85.5267 2244.76 83.5 2251.6 83.5H2352.68C2359.52 83.5 2365.47 85.5267 2370.54 89.58C2375.61 93.6333 2378.9 99.08 2380.42 105.92L2428.3 327.08C2430.33 335.947 2430.07 341.9 2427.54 344.94C2425.26 347.98 2419.56 349.5 2410.44 349.5H2362.94C2355.85 349.5 2350.65 348.233 2347.36 345.7C2344.07 343.167 2341.91 338.48 2340.9 331.64C2339.38 324.293 2337.1 319.48 2334.06 317.2C2331.02 314.92 2325.83 313.78 2318.48 313.78H2285.8C2278.45 313.78 2273.26 314.92 2270.22 317.2C2267.43 319.48 2265.28 324.293 2263.76 331.64C2261.99 338.48 2259.83 343.167 2257.3 345.7C2254.77 348.233 2249.45 349.5 2241.34 349.5H2193.84ZM2303.66 241.58C2315.57 241.58 2320.13 235.373 2317.34 222.96L2307.08 175.84C2306.32 172.293 2304.67 170.52 2302.14 170.52C2299.61 170.52 2297.96 172.293 2297.2 175.84L2287.32 222.96C2284.53 235.373 2288.97 241.58 2300.62 241.58H2303.66ZM2448.88 106.3C2448.88 99.46 2450.9 94.0133 2454.96 89.96C2459.26 85.6533 2464.84 83.5 2471.68 83.5H2573.52C2613.54 83.5 2643.44 94.0133 2663.2 115.04C2682.96 136.067 2692.84 169.887 2692.84 216.5C2692.84 263.113 2682.83 296.933 2662.82 317.96C2642.8 338.987 2612.02 349.5 2570.48 349.5H2471.68C2464.84 349.5 2459.26 347.473 2454.96 343.42C2450.9 339.113 2448.88 333.54 2448.88 326.7V106.3ZM2537.42 174.7V258.3C2537.42 265.647 2539.57 271.347 2543.88 275.4C2548.44 279.2 2554.26 281.1 2561.36 281.1C2569.72 281.1 2576.43 278.947 2581.5 274.64C2586.56 270.333 2590.49 264.887 2593.28 258.3C2596.32 251.713 2598.22 244.62 2598.98 237.02C2599.99 229.42 2600.5 222.453 2600.5 216.12C2600.5 209.787 2599.99 202.947 2598.98 195.6C2597.96 188 2596.06 181.033 2593.28 174.7C2590.49 168.113 2586.56 162.667 2581.5 158.36C2576.43 154.053 2569.72 151.9 2561.36 151.9C2554.26 151.9 2548.44 153.927 2543.88 157.98C2539.57 161.78 2537.42 167.353 2537.42 174.7ZM2734.13 349.5C2727.29 349.5 2721.72 347.473 2717.41 343.42C2713.36 339.113 2711.33 333.54 2711.33 326.7V106.3C2711.33 99.46 2713.36 94.0133 2717.41 89.96C2721.72 85.6533 2727.29 83.5 2734.13 83.5H2777.07C2783.91 83.5 2789.36 85.6533 2793.41 89.96C2797.72 94.0133 2799.87 99.46 2799.87 106.3V326.7C2799.87 333.54 2797.72 339.113 2793.41 343.42C2789.36 347.473 2783.91 349.5 2777.07 349.5H2734.13ZM3046.94 83.12C3053.78 83.12 3059.35 85.2733 3063.66 89.58C3067.96 93.8867 3070.12 99.46 3070.12 106.3V326.7C3070.12 333.54 3067.96 339.113 3063.66 343.42C3059.35 347.727 3053.78 349.88 3046.94 349.88H3004C2999.44 349.88 2995.51 349.627 2992.22 349.12C2988.92 348.36 2986.01 347.22 2983.48 345.7C2980.94 344.18 2978.54 342.153 2976.26 339.62C2973.98 337.087 2971.7 333.92 2969.42 330.12L2929.52 262.86C2927.24 259.567 2924.45 257.92 2921.16 257.92C2918.88 257.92 2916.85 258.807 2915.08 260.58C2913.3 262.1 2912.42 264.38 2912.42 267.42V326.7C2912.42 333.54 2910.26 339.113 2905.96 343.42C2901.65 347.727 2896.08 349.88 2889.24 349.88H2846.3C2839.46 349.88 2833.88 347.727 2829.58 343.42C2825.27 339.113 2823.12 333.54 2823.12 326.7V106.3C2823.12 99.46 2825.27 93.8867 2829.58 89.58C2833.88 85.2733 2839.46 83.12 2846.3 83.12H2897.22C2903.3 83.12 2907.73 84.0067 2910.52 85.78C2913.56 87.5533 2916.72 91.1 2920.02 96.42L2963.72 170.14C2966 173.433 2968.78 175.08 2972.08 175.08C2974.36 175.08 2976.38 174.32 2978.16 172.8C2979.93 171.027 2980.82 168.62 2980.82 165.58V106.3C2980.82 99.46 2982.97 93.8867 2987.28 89.58C2991.58 85.2733 2997.16 83.12 3004 83.12H3046.94ZM3326.31 219.54C3330.87 266.66 3323.52 300.733 3304.27 321.76C3285.02 342.787 3254.62 353.3 3213.07 353.3C3170.76 353.3 3139.48 342.153 3119.21 319.86C3098.94 297.567 3088.81 263.113 3088.81 216.5C3088.81 191.673 3091.09 170.647 3095.65 153.42C3100.21 135.94 3107.81 121.753 3118.45 110.86C3129.34 99.9667 3143.66 92.1133 3161.39 87.3C3179.38 82.2333 3201.8 79.7 3228.65 79.7C3229.41 79.7 3232.45 79.7 3237.77 79.7C3243.09 79.7 3249.17 79.8267 3256.01 80.08C3263.1 80.08 3270.32 80.2067 3277.67 80.46C3285.02 80.46 3291.1 80.7133 3295.91 81.22C3304.02 81.7266 3309.84 84.0066 3313.39 88.06C3316.94 92.1133 3318.71 98.4467 3318.71 107.06V133.66C3318.71 141.767 3316.94 147.087 3313.39 149.62C3310.1 151.9 3304.27 153.04 3295.91 153.04H3230.17C3221.3 153.04 3213.83 153.8 3207.75 155.32C3201.67 156.587 3196.73 159.5 3192.93 164.06C3189.13 168.62 3186.34 175.08 3184.57 183.44C3182.8 191.8 3181.91 202.82 3181.91 216.5C3181.91 229.673 3182.29 240.44 3183.05 248.8C3184.06 257.16 3185.84 263.747 3188.37 268.56C3190.9 273.373 3194.2 276.667 3198.25 278.44C3202.56 280.213 3207.88 281.1 3214.21 281.1C3220.04 281.1 3224.72 280.213 3228.27 278.44C3232.07 276.667 3234.98 272.867 3237.01 267.04C3238.28 262.987 3237.77 259.693 3235.49 257.16C3233.46 254.373 3230.17 252.98 3225.61 252.98C3221.3 252.98 3217.76 251.713 3214.97 249.18C3212.44 246.393 3211.3 242.847 3211.55 238.54V203.58C3211.3 196.74 3213.32 191.293 3217.63 187.24C3221.94 182.933 3227.51 180.78 3234.35 180.78H3299.71C3306.55 180.78 3312.25 182.807 3316.81 186.86C3321.37 190.913 3324.03 196.36 3324.79 203.2L3326.31 219.54Z" fill="white"/>
<path d="M3395.51 212.985C3400.2 208.299 3407.8 208.299 3412.49 212.985L3445.51 246.015C3450.2 250.701 3450.2 258.299 3445.51 262.985L3412.49 296.015C3407.8 300.701 3400.2 300.701 3395.51 296.015L3362.49 262.985C3357.8 258.299 3357.8 250.701 3362.49 246.015L3395.51 212.985Z" fill="white"/>
<path d="M3632.08 277.3C3638.92 277.3 3644.37 279.453 3648.42 283.76C3652.73 287.813 3654.88 293.26 3654.88 300.1V326.7C3654.88 333.54 3652.73 339.113 3648.42 343.42C3644.37 347.473 3638.92 349.5 3632.08 349.5H3506.68C3499.84 349.5 3494.27 347.473 3489.96 343.42C3485.91 339.113 3483.88 333.54 3483.88 326.7V106.3C3483.88 99.46 3485.91 94.0133 3489.96 89.96C3494.27 85.6533 3499.84 83.5 3506.68 83.5H3549.62C3556.46 83.5 3561.91 85.6533 3565.96 89.96C3570.27 94.0133 3572.42 99.46 3572.42 106.3V254.5C3572.42 263.62 3573.94 269.7 3576.98 272.74C3580.02 275.78 3586.1 277.3 3595.22 277.3H3632.08ZM3785.1 353.3C3743.55 353.3 3712.64 342.153 3692.38 319.86C3672.36 297.567 3662.36 263.113 3662.36 216.5C3662.36 169.887 3672.36 135.433 3692.38 113.14C3712.64 90.8467 3743.55 79.7 3785.1 79.7C3826.9 79.7 3857.8 90.8467 3877.82 113.14C3898.08 135.18 3908.22 169.633 3908.22 216.5C3908.22 263.367 3898.08 297.947 3877.82 320.24C3857.8 342.28 3826.9 353.3 3785.1 353.3ZM3785.48 281.1C3791.3 281.1 3796.12 280.213 3799.92 278.44C3803.72 276.667 3806.76 273.373 3809.04 268.56C3811.32 263.747 3812.84 257.16 3813.6 248.8C3814.61 240.187 3815.12 229.167 3815.12 215.74C3815.12 203.073 3814.61 192.687 3813.6 184.58C3812.84 176.22 3811.32 169.633 3809.04 164.82C3806.76 160.007 3803.72 156.713 3799.92 154.94C3796.12 152.913 3791.18 151.9 3785.1 151.9C3779.27 151.9 3774.46 152.787 3770.66 154.56C3766.86 156.333 3763.82 159.627 3761.54 164.44C3759.26 169.253 3757.61 175.84 3756.6 184.2C3755.84 192.56 3755.46 203.327 3755.46 216.5C3755.46 229.673 3755.84 240.44 3756.6 248.8C3757.61 257.16 3759.26 263.747 3761.54 268.56C3763.82 273.373 3766.86 276.667 3770.66 278.44C3774.71 280.213 3779.65 281.1 3785.48 281.1ZM3930.84 349.5C3921.72 349.5 3915.89 347.98 3913.36 344.94C3911.08 341.9 3910.95 335.947 3912.98 327.08L3960.86 105.92C3962.38 99.08 3965.67 93.6333 3970.74 89.58C3975.81 85.5267 3981.76 83.5 3988.6 83.5H4089.68C4096.52 83.5 4102.47 85.5267 4107.54 89.58C4112.61 93.6333 4115.9 99.08 4117.42 105.92L4165.3 327.08C4167.33 335.947 4167.07 341.9 4164.54 344.94C4162.26 347.98 4156.56 349.5 4147.44 349.5H4099.94C4092.85 349.5 4087.65 348.233 4084.36 345.7C4081.07 343.167 4078.91 338.48 4077.9 331.64C4076.38 324.293 4074.1 319.48 4071.06 317.2C4068.02 314.92 4062.83 313.78 4055.48 313.78H4022.8C4015.45 313.78 4010.26 314.92 4007.22 317.2C4004.43 319.48 4002.28 324.293 4000.76 331.64C3998.99 338.48 3996.83 343.167 3994.3 345.7C3991.77 348.233 3986.45 349.5 3978.34 349.5H3930.84ZM4040.66 241.58C4052.57 241.58 4057.13 235.373 4054.34 222.96L4044.08 175.84C4043.32 172.293 4041.67 170.52 4039.14 170.52C4036.61 170.52 4034.96 172.293 4034.2 175.84L4024.32 222.96C4021.53 235.373 4025.97 241.58 4037.62 241.58H4040.66ZM4185.88 106.3C4185.88 99.46 4187.9 94.0133 4191.96 89.96C4196.26 85.6533 4201.84 83.5 4208.68 83.5H4310.52C4350.54 83.5 4380.44 94.0133 4400.2 115.04C4419.96 136.067 4429.84 169.887 4429.84 216.5C4429.84 263.113 4419.83 296.933 4399.82 317.96C4379.8 338.987 4349.02 349.5 4307.48 349.5H4208.68C4201.84 349.5 4196.26 347.473 4191.96 343.42C4187.9 339.113 4185.88 333.54 4185.88 326.7V106.3ZM4274.42 174.7V258.3C4274.42 265.647 4276.57 271.347 4280.88 275.4C4285.44 279.2 4291.26 281.1 4298.36 281.1C4306.72 281.1 4313.43 278.947 4318.5 274.64C4323.56 270.333 4327.49 264.887 4330.28 258.3C4333.32 251.713 4335.22 244.62 4335.98 237.02C4336.99 229.42 4337.5 222.453 4337.5 216.12C4337.5 209.787 4336.99 202.947 4335.98 195.6C4334.96 188 4333.06 181.033 4330.28 174.7C4327.49 168.113 4323.56 162.667 4318.5 158.36C4313.43 154.053 4306.72 151.9 4298.36 151.9C4291.26 151.9 4285.44 153.927 4280.88 157.98C4276.57 161.78 4274.42 167.353 4274.42 174.7ZM4471.13 349.5C4464.29 349.5 4458.72 347.473 4454.41 343.42C4450.36 339.113 4448.33 333.54 4448.33 326.7V106.3C4448.33 99.46 4450.36 94.0133 4454.41 89.96C4458.72 85.6533 4464.29 83.5 4471.13 83.5H4514.07C4520.91 83.5 4526.36 85.6533 4530.41 89.96C4534.72 94.0133 4536.87 99.46 4536.87 106.3V326.7C4536.87 333.54 4534.72 339.113 4530.41 343.42C4526.36 347.473 4520.91 349.5 4514.07 349.5H4471.13ZM4783.94 83.12C4790.78 83.12 4796.35 85.2733 4800.66 89.58C4804.96 93.8867 4807.12 99.46 4807.12 106.3V326.7C4807.12 333.54 4804.96 339.113 4800.66 343.42C4796.35 347.727 4790.78 349.88 4783.94 349.88H4741C4736.44 349.88 4732.51 349.627 4729.22 349.12C4725.92 348.36 4723.01 347.22 4720.48 345.7C4717.94 344.18 4715.54 342.153 4713.26 339.62C4710.98 337.087 4708.7 333.92 4706.42 330.12L4666.52 262.86C4664.24 259.567 4661.45 257.92 4658.16 257.92C4655.88 257.92 4653.85 258.807 4652.08 260.58C4650.3 262.1 4649.42 264.38 4649.42 267.42V326.7C4649.42 333.54 4647.26 339.113 4642.96 343.42C4638.65 347.727 4633.08 349.88 4626.24 349.88H4583.3C4576.46 349.88 4570.88 347.727 4566.58 343.42C4562.27 339.113 4560.12 333.54 4560.12 326.7V106.3C4560.12 99.46 4562.27 93.8867 4566.58 89.58C4570.88 85.2733 4576.46 83.12 4583.3 83.12H4634.22C4640.3 83.12 4644.73 84.0067 4647.52 85.78C4650.56 87.5533 4653.72 91.1 4657.02 96.42L4700.72 170.14C4703 173.433 4705.78 175.08 4709.08 175.08C4711.36 175.08 4713.38 174.32 4715.16 172.8C4716.93 171.027 4717.82 168.62 4717.82 165.58V106.3C4717.82 99.46 4719.97 93.8867 4724.28 89.58C4728.58 85.2733 4734.16 83.12 4741 83.12H4783.94ZM5063.31 219.54C5067.87 266.66 5060.52 300.733 5041.27 321.76C5022.02 342.787 4991.62 353.3 4950.07 353.3C4907.76 353.3 4876.48 342.153 4856.21 319.86C4835.94 297.567 4825.81 263.113 4825.81 216.5C4825.81 191.673 4828.09 170.647 4832.65 153.42C4837.21 135.94 4844.81 121.753 4855.45 110.86C4866.34 99.9667 4880.66 92.1133 4898.39 87.3C4916.38 82.2333 4938.8 79.7 4965.65 79.7C4966.41 79.7 4969.45 79.7 4974.77 79.7C4980.09 79.7 4986.17 79.8267 4993.01 80.08C5000.1 80.08 5007.32 80.2067 5014.67 80.46C5022.02 80.46 5028.1 80.7133 5032.91 81.22C5041.02 81.7266 5046.84 84.0066 5050.39 88.06C5053.94 92.1133 5055.71 98.4467 5055.71 107.06V133.66C5055.71 141.767 5053.94 147.087 5050.39 149.62C5047.1 151.9 5041.27 153.04 5032.91 153.04H4967.17C4958.3 153.04 4950.83 153.8 4944.75 155.32C4938.67 156.587 4933.73 159.5 4929.93 164.06C4926.13 168.62 4923.34 175.08 4921.57 183.44C4919.8 191.8 4918.91 202.82 4918.91 216.5C4918.91 229.673 4919.29 240.44 4920.05 248.8C4921.06 257.16 4922.84 263.747 4925.37 268.56C4927.9 273.373 4931.2 276.667 4935.25 278.44C4939.56 280.213 4944.88 281.1 4951.21 281.1C4957.04 281.1 4961.72 280.213 4965.27 278.44C4969.07 276.667 4971.98 272.867 4974.01 267.04C4975.28 262.987 4974.77 259.693 4972.49 257.16C4970.46 254.373 4967.17 252.98 4962.61 252.98C4958.3 252.98 4954.76 251.713 4951.97 249.18C4949.44 246.393 4948.3 242.847 4948.55 238.54V203.58C4948.3 196.74 4950.32 191.293 4954.63 187.24C4958.94 182.933 4964.51 180.78 4971.35 180.78H5036.71C5043.55 180.78 5049.25 182.807 5053.81 186.86C5058.37 190.913 5061.03 196.36 5061.79 203.2L5063.31 219.54Z" fill="white"/>
<path d="M5132.51 212.985C5137.2 208.299 5144.8 208.299 5149.49 212.985L5182.51 246.015C5187.2 250.701 5187.2 258.299 5182.51 262.985L5149.49 296.015C5144.8 300.701 5137.2 300.701 5132.51 296.015L5099.49 262.985C5094.8 258.299 5094.8 250.701 5099.49 246.015L5132.51 212.985Z" fill="white"/>
<path d="M5369.08 277.3C5375.92 277.3 5381.37 279.453 5385.42 283.76C5389.73 287.813 5391.88 293.26 5391.88 300.1V326.7C5391.88 333.54 5389.73 339.113 5385.42 343.42C5381.37 347.473 5375.92 349.5 5369.08 349.5H5243.68C5236.84 349.5 5231.27 347.473 5226.96 343.42C5222.91 339.113 5220.88 333.54 5220.88 326.7V106.3C5220.88 99.46 5222.91 94.0133 5226.96 89.96C5231.27 85.6533 5236.84 83.5 5243.68 83.5H5286.62C5293.46 83.5 5298.91 85.6533 5302.96 89.96C5307.27 94.0133 5309.42 99.46 5309.42 106.3V254.5C5309.42 263.62 5310.94 269.7 5313.98 272.74C5317.02 275.78 5323.1 277.3 5332.22 277.3H5369.08ZM5522.1 353.3C5480.55 353.3 5449.64 342.153 5429.38 319.86C5409.36 297.567 5399.36 263.113 5399.36 216.5C5399.36 169.887 5409.36 135.433 5429.38 113.14C5449.64 90.8467 5480.55 79.7 5522.1 79.7C5563.9 79.7 5594.8 90.8467 5614.82 113.14C5635.08 135.18 5645.22 169.633 5645.22 216.5C5645.22 263.367 5635.08 297.947 5614.82 320.24C5594.8 342.28 5563.9 353.3 5522.1 353.3ZM5522.48 281.1C5528.3 281.1 5533.12 280.213 5536.92 278.44C5540.72 276.667 5543.76 273.373 5546.04 268.56C5548.32 263.747 5549.84 257.16 5550.6 248.8C5551.61 240.187 5552.12 229.167 5552.12 215.74C5552.12 203.073 5551.61 192.687 5550.6 184.58C5549.84 176.22 5548.32 169.633 5546.04 164.82C5543.76 160.007 5540.72 156.713 5536.92 154.94C5533.12 152.913 5528.18 151.9 5522.1 151.9C5516.27 151.9 5511.46 152.787 5507.66 154.56C5503.86 156.333 5500.82 159.627 5498.54 164.44C5496.26 169.253 5494.61 175.84 5493.6 184.2C5492.84 192.56 5492.46 203.327 5492.46 216.5C5492.46 229.673 5492.84 240.44 5493.6 248.8C5494.61 257.16 5496.26 263.747 5498.54 268.56C5500.82 273.373 5503.86 276.667 5507.66 278.44C5511.71 280.213 5516.65 281.1 5522.48 281.1ZM5667.84 349.5C5658.72 349.5 5652.89 347.98 5650.36 344.94C5648.08 341.9 5647.95 335.947 5649.98 327.08L5697.86 105.92C5699.38 99.08 5702.67 93.6333 5707.74 89.58C5712.81 85.5267 5718.76 83.5 5725.6 83.5H5826.68C5833.52 83.5 5839.47 85.5267 5844.54 89.58C5849.61 93.6333 5852.9 99.08 5854.42 105.92L5902.3 327.08C5904.33 335.947 5904.07 341.9 5901.54 344.94C5899.26 347.98 5893.56 349.5 5884.44 349.5H5836.94C5829.85 349.5 5824.65 348.233 5821.36 345.7C5818.07 343.167 5815.91 338.48 5814.9 331.64C5813.38 324.293 5811.1 319.48 5808.06 317.2C5805.02 314.92 5799.83 313.78 5792.48 313.78H5759.8C5752.45 313.78 5747.26 314.92 5744.22 317.2C5741.43 319.48 5739.28 324.293 5737.76 331.64C5735.99 338.48 5733.83 343.167 5731.3 345.7C5728.77 348.233 5723.45 349.5 5715.34 349.5H5667.84ZM5777.66 241.58C5789.57 241.58 5794.13 235.373 5791.34 222.96L5781.08 175.84C5780.32 172.293 5778.67 170.52 5776.14 170.52C5773.61 170.52 5771.96 172.293 5771.2 175.84L5761.32 222.96C5758.53 235.373 5762.97 241.58 5774.62 241.58H5777.66ZM5922.88 106.3C5922.88 99.46 5924.9 94.0133 5928.96 89.96C5933.26 85.6533 5938.84 83.5 5945.68 83.5H6047.52C6087.54 83.5 6117.44 94.0133 6137.2 115.04C6156.96 136.067 6166.84 169.887 6166.84 216.5C6166.84 263.113 6156.83 296.933 6136.82 317.96C6116.8 338.987 6086.02 349.5 6044.48 349.5H5945.68C5938.84 349.5 5933.26 347.473 5928.96 343.42C5924.9 339.113 5922.88 333.54 5922.88 326.7V106.3ZM6011.42 174.7V258.3C6011.42 265.647 6013.57 271.347 6017.88 275.4C6022.44 279.2 6028.26 281.1 6035.36 281.1C6043.72 281.1 6050.43 278.947 6055.5 274.64C6060.56 270.333 6064.49 264.887 6067.28 258.3C6070.32 251.713 6072.22 244.62 6072.98 237.02C6073.99 229.42 6074.5 222.453 6074.5 216.12C6074.5 209.787 6073.99 202.947 6072.98 195.6C6071.96 188 6070.06 181.033 6067.28 174.7C6064.49 168.113 6060.56 162.667 6055.5 158.36C6050.43 154.053 6043.72 151.9 6035.36 151.9C6028.26 151.9 6022.44 153.927 6017.88 157.98C6013.57 161.78 6011.42 167.353 6011.42 174.7ZM6208.13 349.5C6201.29 349.5 6195.72 347.473 6191.41 343.42C6187.36 339.113 6185.33 333.54 6185.33 326.7V106.3C6185.33 99.46 6187.36 94.0133 6191.41 89.96C6195.72 85.6533 6201.29 83.5 6208.13 83.5H6251.07C6257.91 83.5 6263.36 85.6533 6267.41 89.96C6271.72 94.0133 6273.87 99.46 6273.87 106.3V326.7C6273.87 333.54 6271.72 339.113 6267.41 343.42C6263.36 347.473 6257.91 349.5 6251.07 349.5H6208.13ZM6520.94 83.12C6527.78 83.12 6533.35 85.2733 6537.66 89.58C6541.96 93.8867 6544.12 99.46 6544.12 106.3V326.7C6544.12 333.54 6541.96 339.113 6537.66 343.42C6533.35 347.727 6527.78 349.88 6520.94 349.88H6478C6473.44 349.88 6469.51 349.627 6466.22 349.12C6462.92 348.36 6460.01 347.22 6457.48 345.7C6454.94 344.18 6452.54 342.153 6450.26 339.62C6447.98 337.087 6445.7 333.92 6443.42 330.12L6403.52 262.86C6401.24 259.567 6398.45 257.92 6395.16 257.92C6392.88 257.92 6390.85 258.807 6389.08 260.58C6387.3 262.1 6386.42 264.38 6386.42 267.42V326.7C6386.42 333.54 6384.26 339.113 6379.96 343.42C6375.65 347.727 6370.08 349.88 6363.24 349.88H6320.3C6313.46 349.88 6307.88 347.727 6303.58 343.42C6299.27 339.113 6297.12 333.54 6297.12 326.7V106.3C6297.12 99.46 6299.27 93.8867 6303.58 89.58C6307.88 85.2733 6313.46 83.12 6320.3 83.12H6371.22C6377.3 83.12 6381.73 84.0067 6384.52 85.78C6387.56 87.5533 6390.72 91.1 6394.02 96.42L6437.72 170.14C6440 173.433 6442.78 175.08 6446.08 175.08C6448.36 175.08 6450.38 174.32 6452.16 172.8C6453.93 171.027 6454.82 168.62 6454.82 165.58V106.3C6454.82 99.46 6456.97 93.8867 6461.28 89.58C6465.58 85.2733 6471.16 83.12 6478 83.12H6520.94ZM6800.31 219.54C6804.87 266.66 6797.52 300.733 6778.27 321.76C6759.02 342.787 6728.62 353.3 6687.07 353.3C6644.76 353.3 6613.48 342.153 6593.21 319.86C6572.94 297.567 6562.81 263.113 6562.81 216.5C6562.81 191.673 6565.09 170.647 6569.65 153.42C6574.21 135.94 6581.81 121.753 6592.45 110.86C6603.34 99.9667 6617.66 92.1133 6635.39 87.3C6653.38 82.2333 6675.8 79.7 6702.65 79.7C6703.41 79.7 6706.45 79.7 6711.77 79.7C6717.09 79.7 6723.17 79.8267 6730.01 80.08C6737.1 80.08 6744.32 80.2067 6751.67 80.46C6759.02 80.46 6765.1 80.7133 6769.91 81.22C6778.02 81.7266 6783.84 84.0066 6787.39 88.06C6790.94 92.1133 6792.71 98.4467 6792.71 107.06V133.66C6792.71 141.767 6790.94 147.087 6787.39 149.62C6784.1 151.9 6778.27 153.04 6769.91 153.04H6704.17C6695.3 153.04 6687.83 153.8 6681.75 155.32C6675.67 156.587 6670.73 159.5 6666.93 164.06C6663.13 168.62 6660.34 175.08 6658.57 183.44C6656.8 191.8 6655.91 202.82 6655.91 216.5C6655.91 229.673 6656.29 240.44 6657.05 248.8C6658.06 257.16 6659.84 263.747 6662.37 268.56C6664.9 273.373 6668.2 276.667 6672.25 278.44C6676.56 280.213 6681.88 281.1 6688.21 281.1C6694.04 281.1 6698.72 280.213 6702.27 278.44C6706.07 276.667 6708.98 272.867 6711.01 267.04C6712.28 262.987 6711.77 259.693 6709.49 257.16C6707.46 254.373 6704.17 252.98 6699.61 252.98C6695.3 252.98 6691.76 251.713 6688.97 249.18C6686.44 246.393 6685.3 242.847 6685.55 238.54V203.58C6685.3 196.74 6687.32 191.293 6691.63 187.24C6695.94 182.933 6701.51 180.78 6708.35 180.78H6773.71C6780.55 180.78 6786.25 182.807 6790.81 186.86C6795.37 190.913 6798.03 196.36 6798.79 203.2L6800.31 219.54Z" fill="white"/>
</svg>
