<svg width="1440" height="699" viewBox="0 0 1440 699" fill="none" xmlns="http://www.w3.org/2000/svg">
<g clip-path="url(#clip0_1_54)">
<path d="M234.54 750.666L235.635 750.827L235.685 749.722C240.696 639.342 301.666 540.434 389.404 468.286C477.142 396.138 591.567 350.824 703.311 347.594C823.869 344.108 948.868 389.389 1043.01 465.293C1137.15 541.197 1200.33 647.638 1197.49 766.44C1197.45 767.985 1197.4 769.524 1197.34 771.058L1197.3 772.129L1198.37 772.098C1250.45 770.61 1302.51 768.284 1354.52 765.237C1422.43 761.261 1490.27 756.081 1558.03 750.052L1558.98 749.968L1558.94 749.016C1550.57 538.401 1438.56 356.25 1277.73 228.462C1116.91 100.677 907.204 27.196 703.29 33.9398C329.256 46.3087 -45.5172 329.31 -97.7672 699.897L-97.9054 700.877L-96.9271 701.026C-68.4541 705.347 -39.9689 709.588 -11.4845 713.828L-10.556 713.966C17.6193 718.16 45.7936 722.354 73.9569 726.624C127.477 734.742 180.997 742.8 234.54 750.666Z" fill="#F5817B" stroke="#5F0143" stroke-width="2"/>
<path d="M234.687 749.677C244.741 528.212 479.321 353.068 703.283 346.594C944.911 339.607 1204.2 528.079 1198.49 766.464C1198.45 768.015 1198.4 769.56 1198.34 771.099C1250.41 769.611 1302.46 767.285 1354.46 764.238C1391.72 762.056 1428.95 759.512 1466.16 756.67C1457.92 381.291 1073.42 104.325 712.412 108.102C368.939 111.695 15.1795 369.76 -26.5103 710.577C7.03631 715.572 40.5823 720.548 74.1138 725.635C127.627 733.754 181.145 741.811 234.687 749.677Z" fill="#FBE57C"/>
<path d="M234.686 749.677C244.74 528.212 479.32 353.068 703.282 346.594C944.91 339.607 1204.2 528.08 1198.49 766.464C1198.45 768.015 1198.4 769.56 1198.34 771.099C1250.41 769.611 1302.46 767.285 1354.46 764.239C1360.9 763.861 1367.34 763.47 1373.79 763.068C1376.29 433.398 1026.77 181.969 702.157 188.474C399.735 194.528 85.0268 425.143 55.4178 722.81C61.6474 723.75 67.8832 724.689 74.113 725.635C127.627 733.754 181.144 741.811 234.686 749.677Z" fill="#8EEFAE"/>
<path d="M703.288 346.594C944.916 339.607 1204.2 528.079 1198.5 766.464C1198.46 768.014 1198.41 769.559 1198.35 771.098C1226.55 770.291 1254.73 769.24 1282.92 767.955C1282.93 767.465 1282.95 766.975 1282.96 766.484C1289.63 482.331 982.925 257.587 697.168 265.839C435.665 273.385 161.974 476.911 143.698 736.138C174.021 740.694 204.354 745.213 234.692 749.671C244.741 528.212 479.321 353.068 703.288 346.594Z" fill="#87A9FF"/>
</g>
<defs>
<clipPath id="clip0_1_54">
<rect width="1610.11" height="759.738" fill="white" transform="translate(-119.232 57.0068) rotate(-2)"/>
</clipPath>
</defs>
</svg>
